<?xml version="1.0" encoding="UTF-8"?>
<svg width="300px" height="300px" viewBox="0 0 300 300" version="1.1" xmlns="http://www.w3.org/2000/svg" xmlns:xlink="http://www.w3.org/1999/xlink">
    <!-- Generator: Sketch 52.2 (67145) - http://www.bohemiancoding.com/sketch -->
    <title>Artboard</title>
    <desc>Created with Sketch.</desc>
    <defs>
        <linearGradient x1="50%" y1="0%" x2="50%" y2="100%" id="linearGradient-1">
            <stop stop-color="#818181" offset="0%"></stop>
            <stop stop-color="#4A4A4A" offset="100%"></stop>
        </linearGradient>
    </defs>
    <g id="Artboard" stroke="none" stroke-width="1" fill="none" fill-rule="evenodd">
        <circle id="Oval" fill="url(#linearGradient-1)" fill-rule="nonzero" cx="150" cy="150" r="150"></circle>
        <g id="if_Maps_Maps_Navigation_Direction_Arrow_Pointer-21_3915737" transform="translate(38.000000, 61.000000)">
            <path d="M190.809,7.83866667 C190.681667,7.32933333 190.490667,6.82 190.236,6.37433333 C190.172333,6.18333333 190.045,5.99233333 189.917667,5.80133333 C189.854,5.73766667 189.790333,5.61033333 189.663,5.54666667 C189.535667,5.292 189.344667,5.03733333 189.153667,4.84633333 C188.962667,4.65533333 188.708,4.46433333 188.453333,4.337 C188.390303,4.20966667 188.262333,4.146 188.198667,4.08233333 C188.007667,3.955 187.816667,3.82766667 187.625667,3.764 C187.18,3.50933333 186.670667,3.31833333 186.161333,3.191 C185.652,3.06366667 185.142667,3 184.633333,3 C184.124,3 183.614667,3.06366667 183.041667,3.25466667 C182.787,3.25466667 182.468667,3.382 182.150333,3.50933333 L181.068,4.01866667 L3.88366667,79.9093333 C1.528,80.928 0,83.1563333 0,85.703 C0,88.186 1.46433333,90.5416667 3.75633333,91.5603333 L71.625,122.375 L102.439667,190.243667 C103.458333,192.535667 105.750333,194 108.233333,194 L108.297,194 C110.843667,194 113.072,192.472 114.090667,190.116333 L190.299667,12.2953333 C190.363333,12.168 190.427,11.977 190.490667,11.8503033 C190.618,11.53197 190.745333,11.2136367 190.745333,10.95897 C190.936333,10.449 191,9.93966667 191,9.36666667 C191,8.85733333 190.936333,8.348 190.809,7.83866667 Z" id="Path" fill="#9B9B9B"></path>
            <g id="Group" transform="translate(72.000000, 0.000000)">
                <path d="M119.357143,9.16771813 C119.357143,9.74133556 119.293571,10.2512177 119.102857,10.7610999 C119.102857,11.0160409 118.975714,11.3347173 118.848571,11.6533936 C118.785,11.7808642 118.721429,11.97207 118.657857,12.0995405 L42.5628571,190.112149 C41.5457143,192.470354 39.3207143,194 36.7778571,194 L36.7142857,194 C34.235,194 31.9464286,192.534089 30.9292857,190.239619 L0.160714286,122.297822 L117.513571,4.64251399 C117.704286,4.8337198 117.895,5.08866087 118.022143,5.34360195 C118.276429,5.59854303 118.467143,5.91721938 118.594286,6.17216046 C118.848571,6.61830734 119.039286,7.1281895 119.166429,7.63807166 C119.293571,8.14795382 119.357143,8.65783597 119.357143,9.16771813 Z" id="Path" fill="#FFFFFF"></path>
                <path d="M116.814286,4.13263183 C116.56,3.87769075 116.242143,3.68712229 115.987857,3.5590144 C116.178571,3.62274967 116.369921,3.75022021 116.56,3.87769075 C116.623571,3.94142602 116.750714,4.00516129 116.814286,4.13263183 Z" id="Path" fill="#16BCD4"></path>
            </g>
        </g>
    </g>
</svg>