<?xml version="1.0" encoding="UTF-8"?>
<svg width="500px" height="500px" viewBox="0 0 500 500" version="1.1" xmlns="http://www.w3.org/2000/svg" xmlns:xlink="http://www.w3.org/1999/xlink">
    <!-- Generator: Sketch 52.2 (67145) - http://www.bohemiancoding.com/sketch -->
    <title>facebook</title>
    <desc>Created with Sketch.</desc>
    <g id="facebook" stroke="none" stroke-width="1" fill="none" fill-rule="evenodd">
        <g id="if_1_Media_social_website_facebook_2657542">
            <path d="M426.774414,73.2275391 C381.508789,27.9580078 319.074219,0 250,0 C180.925781,0 118.494141,27.9580078 73.2285156,73.2275391 C27.9628906,118.49707 0,180.925781 0,250 C0,319.074219 27.9628906,381.504883 73.2285156,426.771484 C118.494141,472.039062 180.925781,500 250,500 C319.074219,500 381.508789,472.039062 426.774414,426.771484 C472.039062,381.504883 500,319.074219 500,250 C500,180.925781 472.039062,118.49707 426.774414,73.2275391 Z" id="Path" fill="#4A4A4A"></path>
            <path d="M273.568493,186.69491 L273.568493,161.514266 C273.568493,149.434087 281.56753,146.542478 287.361551,146.542478 C292.973121,146.542478 322.577002,146.542478 322.577002,146.542478 L322.577002,92.7734375 L274.083437,92.7734375 C220.14875,92.7734375 208.070972,132.586174 208.070972,158.451009 L208.070972,186.693709 L176.757812,186.693709 L176.757812,224.636323 L176.757812,249.482073 L208.404665,249.482073 C208.404665,320.773615 208.404665,406.359955 208.404665,406.359955 L271.193028,406.359955 C271.193028,406.359955 271.193028,319.581681 271.193028,249.482073 L317.63762,249.482073 L319.686593,224.810371 L323.431641,186.69491 L273.568493,186.69491 Z" id="Path" fill="#FFFFFF"></path>
        </g>
    </g>
</svg>