<?xml version="1.0" encoding="UTF-8"?>
<svg width="500px" height="500px" viewBox="0 0 500 500" version="1.1" xmlns="http://www.w3.org/2000/svg" xmlns:xlink="http://www.w3.org/1999/xlink">
    <!-- Generator: Sketch 52.2 (67145) - http://www.bohemiancoding.com/sketch -->
    <title>google</title>
    <desc>Created with Sketch.</desc>
    <g id="google" stroke="none" stroke-width="1" fill="none" fill-rule="evenodd">
        <ellipse id="Oval" fill="#FFFFFF" fill-rule="nonzero" cx="248.5" cy="264" rx="204.5" ry="202"></ellipse>
        <path d="M250,500 C111.928813,500 0,388.071187 0,250 C0,111.928813 111.928813,0 250,0 C388.071187,0 500,111.928813 500,250 C500,388.071187 388.071187,500 250,500 Z M424.072571,212.916667 L250,212.916667 L250,287.083333 L346.212057,287.083333 C331.250163,325.970133 294.161398,353.833333 250,353.833333 C192.654826,353.833333 146.166667,307.345174 146.166667,250 C146.166667,192.653921 192.654826,146.166667 250,146.166667 C270.79419,146.166667 289.959646,152.554851 306.196279,163.086842 C308.681478,164.701995 311.245443,166.218465 313.580353,168.03189 L367.531352,116.560658 L366.314555,115.624522 C335.097921,88.5698034 294.55251,72 250,72 C151.692953,72 72,151.692953 72,250 C72,348.306143 151.692953,428 250,428 C340.745524,428 415.472605,360.044973 426.45818,272.277161 C427.385264,264.984528 428,257.545227 428,250 C428,237.275238 426.61028,224.884552 424.072571,212.916667 Z" id="Combined-Shape" fill="#4A4A4A" fill-rule="nonzero"></path>
    </g>
</svg>