<?xml version="1.0" encoding="UTF-8"?>
<svg width="500px" height="500px" viewBox="0 0 500 500" version="1.1" xmlns="http://www.w3.org/2000/svg" xmlns:xlink="http://www.w3.org/1999/xlink">
    <!-- Generator: Sketch 52.2 (67145) - http://www.bohemiancoding.com/sketch -->
    <title>google</title>
    <desc>Created with Sketch.</desc>
    <g id="google" stroke="none" stroke-width="1" fill="none" fill-rule="evenodd">
        <ellipse id="Oval" fill="#FFFFFF" fill-rule="nonzero" cx="248.5" cy="264" rx="204.5" ry="202"></ellipse>
        <path d="M250,500 C111.928813,500 0,388.071187 0,250 C0,111.928813 111.928813,0 250,0 C388.071187,0 500,111.928813 500,250 C500,388.071187 388.071187,500 250,500 Z M411.359406,215.625 L250,215.625 L250,284.375 L339.185334,284.375 C325.316163,320.421753 290.936127,346.25 250,346.25 C196.842957,346.25 153.75,303.157043 153.75,250 C153.75,196.842118 196.842957,153.75 250,153.75 C269.275513,153.75 287.041245,159.671631 302.092057,169.434433 C304.395752,170.931625 306.772462,172.337341 308.936844,174.018325 L358.947601,126.306228 L357.819672,125.438461 C328.882904,100.359649 291.298675,85 250,85 C158.872681,85 85,158.872681 85,250 C85,341.126481 158.872681,415 250,415 C334.118042,415 403.387527,352.00798 413.570785,270.650178 C414.43016,263.890152 415,256.994171 415,250 C415,238.204575 413.711776,226.718826 411.359406,215.625 Z" id="Combined-Shape" fill="#4A4A4A" fill-rule="nonzero"></path>
    </g>
</svg>