<?xml version="1.0" encoding="UTF-8"?>
<svg width="512px" height="512px" viewBox="0 0 512 512" version="1.1" xmlns="http://www.w3.org/2000/svg" xmlns:xlink="http://www.w3.org/1999/xlink">
    <!-- Generator: Sketch 52.2 (67145) - http://www.bohemiancoding.com/sketch -->
    <title>twitter</title>
    <desc>Created with Sketch.</desc>
    <g id="twitter" stroke="none" stroke-width="1" fill="none" fill-rule="evenodd">
        <g id="Path">
            <path d="M437.018,74.963 C390.661,28.765 326.734,0 256.003,0 C185.266,0 121.34,28.765 74.993,74.963 C28.631,121.305 0,185.355 0,256.073 C0,326.639 28.631,390.698 74.993,437.032 C121.34,483.232 185.266,512 256.003,512 C326.734,512 390.661,483.232 437.018,437.032 C483.369,390.698 512,326.64 512,256.073 C512,185.355 483.369,121.305 437.018,74.963 Z" fill="#4A4A4A"></path>
            <path d="M412.378,160.635383 C401.023168,165.552106 388.66563,168.939075 375.620898,170.627779 C388.996678,162.671867 399.157586,150.474476 403.912967,135.571333 C391.543478,142.852002 377.653797,148.103358 363.088873,150.981206 C351.552382,138.624864 334.796804,131 316.157717,131 C280.920807,131 252.114837,159.284898 252.114837,193.99954 C252.114837,199.081189 252.972933,203.825815 253.985199,208.400733 C200.623104,205.858713 153.353729,180.791077 121.839618,142.514978 C116.42214,152.000644 113.037561,162.671867 113.037561,174.186846 C113.037561,196.204536 124.556125,215.5105 141.493361,226.690845 C130.994235,226.522333 121.164375,223.638509 112.53083,218.897469 C112.53083,219.238079 112.53083,219.407786 112.53083,219.744809 C112.53083,227.872818 114.056998,235.32917 116.930066,242.437742 C124.731807,262.258803 142.518774,277.15836 164.035709,281.393865 C158.435378,282.918837 153.017901,283.760202 147.092497,283.760202 C143.0267,283.760202 138.958512,283.253471 135.055251,282.408521 C143.363724,307.476157 166.907582,325.761489 194.868603,326.443902 C172.838961,343.378748 145.396622,353.371144 115.409874,353.371144 C110.154932,353.371144 105.248966,353.028145 100,352.523804 C128.4558,370.309576 162.165347,380.808703 198.253182,380.808703 C298.37075,380.808703 360.206244,311.534784 376.292555,239.556309 C379.182355,226.68965 380.52806,213.985527 380.52806,201.454697 C380.52806,198.742971 380.52806,195.868708 380.52806,193.323103 C392.896354,184.347754 403.912967,173.167409 412.378,160.635383 Z" fill="#FFFFFF"></path>
        </g>
    </g>
</svg>